PathFileType	4	(X/Y/Z)	s08c0301.trc
DataRate	CameraRate	NumFrames	NumMarkers	Units	OrigDataRate	OrigDataStartFrame	OrigNumFrames
200	200	4	50	mm	200	1000	2000
Frame#	Time	racr			lacr			c7			jug			rlel			rdr			llel			ldr			s2			lic			ric			lasi			rasi			rpsi			lpsi			rgt			lgt			rth1			rth2			rth3			rth4			rlfc			rmfc			rsh1			rsh2			rsh3			rsh4			rlmal			rmmal			rcal			rtoe			rmt5			lth1			lth2			lth4			lth3			llfc			lmfc			llmal			lmmal			lcal			lmt5			lsh1			lsh2			lsh3			lsh4			ltoe			SBIKE			LBIKE			RBIKE			
		X1	Y1	Z1	X2	Y2	Z2	X3	Y3	Z3	X4	Y4	Z4	X5	Y5	Z5	X6	Y6	Z6	X7	Y7	Z7	X8	Y8	Z8	X9	Y9	Z9	X10	Y10	Z10	X11	Y11	Z11	X12	Y12	Z12	X13	Y13	Z13	X14	Y14	Z14	X15	Y15	Z15	X16	Y16	Z16	X17	Y17	Z17	X18	Y18	Z18	X19	Y19	Z19	X20	Y20	Z20	X21	Y21	Z21	X22	Y22	Z22	X23	Y23	Z23	X24	Y24	Z24	X25	Y25	Z25	X26	Y26	Z26	X27	Y27	Z27	X28	Y28	Z28	X29	Y29	Z29	X30	Y30	Z30	X31	Y31	Z31	X32	Y32	Z32	X33	Y33	Z33	X34	Y34	Z34	X35	Y35	Z35	X36	Y36	Z36	X37	Y37	Z37	X38	Y38	Z38	X39	Y39	Z39	X40	Y40	Z40	X41	Y41	Z41	X42	Y42	Z42	X43	Y43	Z43	X44	Y44	Z44	X45	Y45	Z45	X46	Y46	Z46	X47	Y47	Z47	X48	Y48	Z48	X49	Y49	Z49	X50	Y50	Z50	
1000	5.0000	879.545177	1389.081853	-176.889527	853.263015	1317.219832	-486.617023	853.349072	1398.841180	-331.702824	810.655822	1248.141533	-294.207454	785.260620	1176.653824	-0.509474	811.486134	891.484439	-57.481742	654.865296	1100.365677	-552.793956	805.059150	911.857021	-443.734569	288.268094	1278.526973	-163.504785	391.155769	1247.737488	-349.104238	493.140785	1257.222781	-54.600244	428.655173	1192.781664	-321.347860	489.208393	1186.587358	-89.575252	343.143667	1310.117910	-125.255287	312.038011	1319.350161	-216.494479	397.964287	1143.965412	2.313025	328.124161	1163.242897	-369.550475	453.900769	974.913689	-12.067448	491.002981	895.069536	-25.979621	484.485111	808.986303	-32.340873	523.239948	903.069260	-40.919101	486.771395	690.322119	-47.396067	458.399074	691.820317	-155.500958	377.096115	611.021319	-12.813636	334.101691	535.521525	-33.742608	260.913979	489.818938	-38.158014	355.732058	520.627057	-66.823495	167.508483	409.129548	-47.295546	192.907051	412.017561	-134.194620	115.466866	465.353413	-97.990813	207.252134	182.054740	-108.166470	148.652140	252.323165	-38.860542	402.387350	1054.522727	-393.572681	473.119020	1005.371730	-407.581868	502.192507	1027.782300	-400.673418	510.079558	924.967219	-417.738531	573.946276	805.936785	-410.891981	589.852812	775.552978	-304.817927	356.057214	447.488892	-394.685805	392.552551	458.539344	-312.169580	283.122079	435.748660	-353.827373	472.156702	341.655185	-427.139876	510.077877	695.405181	-429.350428	484.974789	614.703418	-411.405856	422.014607	553.377082	-406.668809	509.613145	605.244988	-382.055334	560.815173	357.213028	-363.284620	-138.380512	941.662900	-228.912295	16.971510	79.995647	-427.408626	16.951153	80.291599	-28.988688	
1001	5.0050	878.480109	1390.296220	-176.104173	854.938726	1314.437619	-485.023451	853.465227	1398.433294	-331.042181	810.765106	1248.039322	-292.357483	785.498260	1176.820382	-0.777528	811.392535	891.291397	-57.373600	654.844900	1099.457570	-552.333047	805.066684	911.560322	-443.461984	287.850006	1277.063627	-163.774875	391.961530	1244.364544	-350.092400	492.915437	1257.821442	-55.583666	428.388413	1190.384024	-322.149530	489.797029	1187.263913	-90.699985	342.659437	1309.177109	-126.337093	311.108557	1317.274726	-215.971161	400.404238	1144.064218	2.270486	326.532435	1159.849838	-369.419070	459.224395	976.119081	-13.647012	497.400018	897.215698	-27.502236	491.842736	811.053371	-33.732084	528.996649	905.608981	-43.784062	495.005665	692.413694	-48.980180	464.158814	694.763096	-157.898298	384.290368	614.926445	-14.170768	339.346889	540.524483	-34.993439	265.029192	496.606568	-38.965897	360.293810	525.330480	-68.392699	169.505321	418.448022	-47.652720	195.855420	419.923539	-134.838960	118.700634	475.946503	-98.120337	204.132691	190.684004	-108.351502	147.096389	262.296232	-39.037466	400.474166	1050.218416	-392.965654	470.575061	1000.113313	-406.618842	499.803065	1022.155070	-399.999351	506.405369	919.137829	-416.400157	568.926349	799.483782	-409.180942	584.210855	768.394392	-303.672921	357.006777	436.566971	-394.752680	393.672849	447.512680	-312.311350	284.615953	424.240113	-353.649335	473.729846	330.665413	-426.984931	505.631834	688.767799	-428.547534	482.238900	607.167280	-411.234031	420.390371	544.778777	-406.345707	507.481198	597.432729	-382.495362	562.346898	346.367118	-363.096864	-138.368358	941.608486	-228.796463	16.993707	79.991686	-427.406547	16.965427	80.269997	-28.992743	
1002	5.0100	877.585246	1391.474119	-175.066242	856.990976	1312.178349	-484.297879	853.722031	1398.011423	-330.162509	811.834027	1247.662414	-290.440032	785.578384	1176.968893	-0.794123	811.175259	891.040961	-57.231785	655.211839	1098.694776	-552.093146	805.052314	911.174672	-443.251005	287.506233	1275.147267	-164.153008	392.642772	1241.005906	-351.327764	492.532807	1258.170890	-56.645117	428.235906	1187.885182	-322.999322	490.284985	1188.050239	-91.738805	341.971080	1307.944781	-127.468681	312.362417	1313.516263	-220.941985	402.530581	1144.135063	1.989550	325.273049	1155.941903	-369.274155	463.865745	977.459644	-14.456313	502.786538	898.905163	-30.121205	498.887584	812.847989	-35.573781	533.785502	907.987541	-46.354715	502.949365	694.404474	-50.810477	471.487293	696.666077	-159.184933	391.077994	619.105159	-15.697374	344.337440	545.825026	-36.846558	268.843924	503.688921	-39.956497	364.526546	530.305241	-70.041490	171.350358	428.162178	-48.168288	197.758082	428.527595	-135.728053	121.388382	486.522602	-98.504704	201.855655	199.847208	-108.506358	146.186626	272.533265	-39.182736	398.750497	1045.507560	-392.529930	468.227272	994.258539	-405.671831	497.751161	1016.007210	-399.182611	502.734380	912.773241	-414.946918	563.841015	792.492486	-407.246419	579.669904	761.231545	-301.617722	357.553658	425.838544	-394.850996	394.147722	436.773183	-312.313834	285.479260	413.231293	-353.878086	474.709091	319.592040	-426.664931	501.569386	681.102355	-427.535292	479.384703	599.052231	-410.871374	418.466123	535.841549	-406.016219	505.205115	589.459668	-382.701085	563.340307	335.172230	-362.713931	-138.373706	941.575191	-228.734109	16.990842	79.949482	-427.392251	16.979591	80.236995	-28.967186	
1003	5.0150	876.731776	1392.545630	-173.868257	858.503500	1308.988639	-480.663063	854.040031	1397.478238	-329.198285	811.119520	1247.784716	-288.136033	785.468602	1177.015141	-0.617497	811.161408	890.707947	-56.721445	655.960298	1098.083138	-552.135176	805.118531	910.736226	-442.784550	286.643448	1273.284336	-163.631666	393.502563	1237.538532	-352.643407	492.016813	1258.263869	-57.801422	428.205545	1185.292268	-323.892326	490.630394	1188.131303	-92.914218	341.207385	1306.558032	-128.861807	311.088449	1311.613636	-220.755669	404.231737	1144.169722	1.584701	324.359408	1151.642872	-369.305744	467.653442	978.631452	-15.181759	507.521650	900.907381	-31.515414	504.841431	814.662872	-36.910331	538.259425	910.246600	-48.033550	510.464773	696.312777	-53.581288	478.240823	698.912558	-160.181050	397.567324	623.483837	-17.294041	349.903013	551.503891	-37.734651	272.388876	511.173290	-41.157191	368.889665	535.540448	-71.742891	173.157333	438.105116	-48.705357	199.210695	438.139651	-136.646437	123.823201	497.124747	-99.042142	200.623309	209.415963	-108.757452	146.023776	282.916094	-39.317776	397.250750	1040.325451	-392.100250	465.918078	987.854561	-404.755570	495.675964	1009.166367	-398.567005	499.107604	905.752059	-413.301461	558.759292	785.129720	-405.176222	574.046186	753.466865	-299.963204	357.692361	415.165884	-395.242298	394.108643	426.002521	-312.706086	285.898912	402.749631	-354.906221	475.221004	308.369678	-426.401603	497.949007	672.433590	-426.258268	476.696254	590.329937	-410.295509	416.867819	526.246802	-406.184616	502.807080	580.355626	-381.748265	563.748280	323.971772	-362.380009	-138.400864	941.556613	-228.813643	16.982384	79.903065	-427.373697	16.950858	80.216426	-28.953076	
